#!OML:ASF F:\VICON\USERDATA\INSTALL\rory3\rory3.ASF
:FULLY-SPECIFIED
:DEGREES
463
root 0.424614 16.0423 24.9303 0.085432 1.26212 5.01364
lowerback 13.4319 0.190509 -8.15926
upperback -5.95247 -1.31541 0.140741
thorax -14.1252 0.154948 5.10566
lowerneck -10.0727 -4.63471 -3.26012
upperneck 21.0648 -6.14831 1.32334
head 8.33959 -3.04751 0.356637
rclavicle -6.65929e-015 -1.0138e-014
rhumerus -50.7766 -5.65597 -81.5199
rradius 21.3016
rwrist 11.4767
rhand -9.85165 21.9929
rfingers 7.12502
rthumb 16.1265 -7.35614
lclavicle -6.65929e-015 -1.0138e-014
lhumerus -34.6327 -0.788539 87.5058
lradius 23.1733
lwrist -0.238741
lhand -5.5049 20.8468
lfingers 7.12502
lthumb 20.3082 49.805
rfemur -27.3755 -3.63817 15.7383
rtibia 72.7325
rfoot -6.76622 -3.78145
rtoes 26.9486
lfemur -9.4182 -14.2215 -31.5427
ltibia 29.3026
lfoot -13.8358 7.25565
ltoes 9.81458
464
root 0.428906 16.0358 25.0401 0.128549 1.30783 5.05827
lowerback 13.6246 0.13511 -8.29094
upperback -6.00079 -1.43044 0.198345
thorax -14.2838 0.12718 5.28021
lowerneck -10.4374 -4.62829 -3.13863
upperneck 21.4519 -6.09549 1.02847
head 8.52215 -3.03801 0.230302
rclavicle -3.10601e-015 3.97569e-016
rhumerus -51.1455 -5.19982 -81.7793
rradius 21.7818
rwrist 10.8547
rhand -9.86108 22.1241
rfingers 7.12502
rthumb 16.1174 -7.22565
lclavicle -3.10601e-015 3.97569e-016
lhumerus -34.5946 -1.12414 87.7216
lradius 23.7753
lwrist 0.49771
lhand -5.81267 20.9559
lfingers 7.12502
lthumb 20.0124 49.9454
rfemur -28.3236 -3.48068 15.89
rtibia 71.7054
rfoot -7.67628 -3.96682
rtoes 27.1582
lfemur -8.77422 -14.37 -31.756
ltibia 29.1328
lfoot -14.2871 7.43322
ltoes 8.87739
465
root 0.432416 16.0372 25.1548 0.174213 1.40046 5.21222
lowerback 13.5301 0.0893815 -8.54442
upperback -5.82982 -1.52285 0.200804
thorax -14.0052 0.088558 5.44437
lowerneck -11.0571 -4.68307 -2.99906
upperneck 21.6888 -6.13866 0.822611
head 8.70602 -3.06175 0.11472
rclavicle -3.60297e-015 2.42517e-014
rhumerus -50.9884 -4.94257 -82.0207
rradius 21.991
rwrist 10.3047
rhand -9.59965 22.1786
rfingers 7.12502
rthumb 16.3691 -7.15059
lclavicle -3.60297e-015 2.42517e-014
lhumerus -34.1068 -1.49437 87.8987
lradius 24.2532
lwrist 1.0361
lhand -6.04605 20.7232
lfingers 7.12502
lthumb 19.7881 49.7359
rfemur -29.1209 -3.24412 15.8568
rtibia 70.4479
rfoot -8.54045 -4.16057
rtoes 29.3439
lfemur -8.24122 -14.8385 -32.0464
ltibia 29.027
lfoot -14.9789 7.34795
ltoes 11.1373
466
root 0.43175 16.0432 25.268 0.254872 1.47114 5.19749
lowerback 13.4953 0.0560676 -8.66378
upperback -5.74479 -1.58013 0.221377
thorax -13.8719 0.064529 5.54704
lowerneck -10.9871 -4.70126 -3.03281
upperneck 21.4458 -6.1905 0.986342
head 8.61805 -3.07339 0.174296
rclavicle 4.77083e-015 -2.06736e-014
rhumerus -51.0377 -4.50088 -82.5455
rradius 22.3548
rwrist 9.56475
rhand -9.30437 21.7215
rfingers 7.12502
rthumb 16.6534 -7.58404
lclavicle 4.77083e-015 -2.06736e-014
lhumerus -33.8329 -2.12262 88.0798
lradius 24.9207
lwrist 1.98312
lhand -6.23855 20.7476
lfingers 7.12502
lthumb 19.603 49.7793
rfemur -29.9288 -2.86976 16.0341
rtibia 69.0067
rfoot -9.22028 -4.54269
rtoes 30.1809
lfemur -7.80786 -15.228 -32.0988
ltibia 28.927
lfoot -15.614 7.18043
ltoes 13.3247
467
root 0.431064 16.0389 25.3741 0.390719 1.47649 4.97722
lowerback 13.5713 0.0117443 -8.53706
upperback -5.7919 -1.61483 0.306307
thorax -13.9674 0.0487331 5.58316
lowerneck -9.76209 -4.51785 -3.30995
upperneck 20.3125 -6.02226 1.5836
head 8.03744 -2.9715 0.480082
rclavicle 6.23687e-015 1.39149e-014
rhumerus -51.3085 -4.20611 -82.852
rradius 22.7596
rwrist 9.20867
rhand -9.2439 21.5694
rfingers 7.12502
rthumb 16.7116 -7.73128
lclavicle 6.23687e-015 1.39149e-014
lhumerus -33.834 -2.67785 88.2585
lradius 25.6229
lwrist 2.83103
lhand -6.44855 20.2539
lfingers 7.12502
lthumb 19.4011 49.306
rfemur -30.729 -2.43638 16.4758
rtibia 67.4501
rfoot -9.58689 -5.09132
rtoes 29.1918
lfemur -7.49613 -15.1141 -31.9371
ltibia 28.7714
lfoot -15.6632 7.48239
ltoes 10.8576
468
root 0.433531 16.0319 25.4825 0.5258 1.50473 4.8719
lowerback 13.6139 -0.0244606 -8.49337
upperback -5.77206 -1.64975 0.373652
thorax -13.9627 0.0319391 5.6444
lowerneck -10.007 -4.50704 -3.24589
upperneck 20.3453 -5.99118 1.48791
head 8.08676 -2.95849 0.434903
rclavicle -1.68967e-015 -2.3059e-014
rhumerus -51.4503 -3.77038 -83.2067
rradius 23.0527
rwrist 8.82061
rhand -9.5979 21.8523
rfingers 7.12502
rthumb 16.3708 -7.47684
lclavicle -1.68967e-015 -2.3059e-014
lhumerus -33.6011 -2.9366 88.3608
lradius 26.2796
lwrist 3.25907
lhand -6.30041 19.9497
lfingers 7.12502
lthumb 19.5435 48.9874
rfemur -31.4004 -2.07158 16.7175
rtibia 65.7977
rfoot -9.766 -5.56113
rtoes 28.1722
lfemur -7.06347 -14.9785 -31.9238
ltibia 28.5334
lfoot -15.8008 7.73248
ltoes 8.58515
469
root 0.437727 16.0346 25.6 0.628151 1.59431 4.88261
lowerback 13.6079 -0.0883852 -8.56358
upperback -5.68795 -1.73819 0.424069
thorax -13.842 -0.00869662 5.76129
lowerneck -10.0434 -4.46626 -3.35043
upperneck 20.1402 -5.92733 1.57878
head 8.02962 -2.92737 0.489781
rclavicle 8.92046e-015 -1.86858e-014
rhumerus -51.4981 -3.232 -83.6088
rradius 23.2512
rwrist 8.70759
rhand -10.2104 22.5019
rfingers 7.12502
rthumb 15.781 -6.87481
lclavicle 8.92046e-015 -1.86858e-014
lhumerus -33.3324 -3.07029 88.4356
lradius 26.8497
lwrist 3.35744
lhand -6.44918 19.9791
lfingers 7.12502
lthumb 19.4005 49.0313
rfemur -31.8923 -1.72591 16.7389
rtibia 63.9948
rfoot -9.95856 -5.82294
rtoes 28.6113
lfemur -6.44906 -15.0901 -32.0732
ltibia 28.1835
lfoot -16.1373 7.88112
ltoes 8.32957
470
root 0.439217 16.0354 25.7192 0.772454 1.68758 4.99311
lowerback 13.61 -0.113876 -8.71287
upperback -5.67923 -1.8026 0.415983
thorax -13.8212 -0.027016 5.85248
lowerneck -9.96123 -4.49557 -3.40526
upperneck 19.8795 -5.97513 1.68131
head 7.93429 -2.94587 0.532223
rclavicle 1.39149e-015 5.96354e-015
rhumerus -51.6662 -3.02495 -83.8545
rradius 23.5445
rwrist 8.68433
rhand -10.3106 22.6761
rfingers 7.12502
rthumb 15.6845 -6.70821
lclavicle 1.39149e-015 5.96354e-015
lhumerus -33.2883 -3.55093 88.6281
lradius 27.4883
lwrist 3.65137
lhand -6.83136 19.1358
lfingers 7.12502
lthumb 19.033 48.2246
rfemur -32.3731 -1.3138 16.643
rtibia 62.0871
rfoot -10.0521 -6.16341
rtoes 28.698
lfemur -5.84041 -15.1764 -32.3063
ltibia 27.7027
lfoot -16.2548 8.00221
ltoes 8.84308
471
root 0.441359 16.0351 25.8364 0.928662 1.7083 5.14894
lowerback 13.6054 -0.0922803 -8.86657
upperback -5.71771 -1.8123 0.360841
thorax -13.8634 -0.0174462 5.88014
lowerneck -10.1634 -4.59576 -3.38937
upperneck 20.0181 -6.12246 1.71987
head 8.0218 -3.0085 0.520716
rclavicle 1.24737e-014 2.38542e-015
rhumerus -51.9346 -2.9007 -84.1073
rradius 23.9107
rwrist 8.50463
rhand -10.286 22.4323
rfingers 7.12502
rthumb 15.7082 -6.95012
lclavicle 1.24737e-014 2.38542e-015
lhumerus -33.2305 -4.01377 88.7474
lradius 28.2172
lwrist 4.29731
lhand -6.70322 18.5954
lfingers 7.12502
lthumb 19.1562 47.672
rfemur -32.8088 -0.784323 16.4269
rtibia 60.0509
rfoot -10.2948 -6.28885
rtoes 29.644
lfemur -5.17362 -15.1854 -32.5885
ltibia 27.1615
lfoot -16.3945 8.16651
ltoes 7.61697
472
root 0.440498 16.0375 25.9504 1.06698 1.71952 5.08762
lowerback 13.6409 -0.118286 -8.86871
upperback -5.73891 -1.84725 0.404453
thorax -13.9032 -0.0278271 5.94113
lowerneck -10.281 -4.61419 -3.45294
upperneck 20.0496 -6.1513 1.8054
head 8.05942 -3.01735 0.552954
rclavicle 3.47873e-016 -1.39149e-014
rhumerus -52.0204 -2.68325 -84.3277
rradius 24.0848
rwrist 8.39253
rhand -10.235 22.4175
rfingers 7.12502
rthumb 15.7574 -6.96109
lclavicle 3.47873e-016 -1.39149e-014
lhumerus -33.1505 -4.347 88.8661
lradius 28.9629
lwrist 5.08096
lhand -6.63484 19.0879
lfingers 7.12502
lthumb 19.222 48.158
rfemur -33.1357 -0.123686 16.4517
rtibia 57.8724
rfoot -10.5212 -6.55884
rtoes 29.759
lfemur -4.48101 -15.2427 -32.6081
ltibia 26.5863
lfoot -16.6094 8.26739
ltoes 6.96918
473
root 0.430555 16.0428 26.0653 1.13428 1.66902 4.86546
lowerback 13.704 -0.0932727 -8.82269
upperback -5.66081 -1.79325 0.508502
thorax -13.8557 -0.00542669 6.02074
lowerneck -10.4271 -4.60487 -3.5475
upperneck 19.9267 -6.14087 1.94503
head 8.05239 -3.00461 0.61308
rclavicle 8.92046e-015 -8.34896e-015
rhumerus -51.8574 -2.57618 -84.4637
rradius 24.0319
rwrist 8.44448
rhand -10.3271 22.6974
rfingers 7.12502
rthumb 15.6686 -6.68817
lclavicle 8.92046e-015 -8.34896e-015
lhumerus -32.9502 -4.53852 88.9448
lradius 29.7504
lwrist 5.59765
lhand -6.61323 19.2364
lfingers 7.12502
lthumb 19.2428 48.3044
rfemur -33.3568 0.855049 16.6572
rtibia 55.5754
rfoot -10.4768 -7.29451
rtoes 29.9908
lfemur -3.7468 -15.2884 -32.4009
ltibia 25.9362
lfoot -16.792 8.29412
ltoes 7.57122
474
root 0.421523 16.0497 26.184 1.22378 1.57803 4.80641
lowerback 13.6497 -0.0359913 -8.92713
upperback -5.60564 -1.72196 0.552717
thorax -13.7674 0.0331312 6.10989
lowerneck -10.5141 -4.6694 -3.49196
upperneck 19.8726 -6.22387 1.88775
head 8.04877 -3.04453 0.574859
rclavicle -1.86361e-015 1.55052e-014
rhumerus -51.8246 -2.30858 -84.7445
rradius 24.0903
rwrist 8.21279
rhand -10.6712 22.3561
rfingers 7.12502
rthumb 15.3372 -7.05511
lclavicle -1.86361e-015 1.55052e-014
lhumerus -32.9325 -4.61982 88.988
lradius 30.6203
lwrist 5.63158
lhand -6.53226 19.5356
lfingers 7.12502
lthumb 19.3206 48.5959
rfemur -33.5406 1.89892 16.6102
rtibia 53.2276
rfoot -10.4676 -8.08532
rtoes 30.261
lfemur -2.94048 -15.3273 -32.3978
ltibia 25.1551
lfoot -16.8235 8.47212
ltoes 7.11086
475
root 0.425483 16.0565 26.303 1.4407 1.58422 5.00925
lowerback 13.6104 1.07848e-005 -9.06709
upperback -5.72057 -1.71425 0.465563
thorax -13.8835 0.0542591 6.08945
lowerneck -10.4504 -4.76635 -3.48919
upperneck 19.9782 -6.36984 1.91238
head 8.07751 -3.11153 0.567662
rclavicle 7.15625e-015 1.19271e-015
rhumerus -52.2096 -1.9319 -85.1925
rradius 24.5141
rwrist 7.54247
rhand -10.7059 21.376
rfingers 7.12502
rthumb 15.3038 -8.03777
lclavicle 7.15625e-015 1.19271e-015
lhumerus -33.2124 -4.99669 89.1329
lradius 31.3108
lwrist 5.25121
lhand -6.57767 19.6802
lfingers 7.12502
lthumb 19.277 48.7448
rfemur -33.7917 2.61787 16.16
rtibia 50.8936
rfoot -10.7436 -8.55546
rtoes 31.2764
lfemur -2.07141 -15.484 -32.7377
ltibia 24.1804
lfoot -16.785 8.78188
ltoes 5.84194
476
root 0.430087 16.0641 26.4209 1.6729 1.60442 5.20856
lowerback 13.6112 0.016976 -9.12812
upperback -5.84843 -1.72518 0.35468
thorax -14.0378 0.0607013 6.00311
lowerneck -10.2673 -4.79925 -3.46944
upperneck 19.9614 -6.42542 1.91462
head 8.03977 -3.13834 0.564267
rclavicle -2.31584e-014 -2.70347e-014
rhumerus -52.5075 -1.8929 -85.3611
rradius 24.7502
rwrist 7.42961
rhand -10.4487 21.7712
rfingers 7.12502
rthumb 15.5515 -7.62347
lclavicle -2.31584e-014 -2.70347e-014
lhumerus -33.391 -5.72142 89.3839
lradius 31.6722
lwrist 5.21354
lhand -7.04189 18.256
lfingers 7.12502
lthumb 18.8305 47.3645
rfemur -34.0402 3.39396 15.6517
rtibia 48.5767
rfoot -10.7603 -9.35977
rtoes 32.5197
lfemur -1.10006 -15.6493 -33.0634
ltibia 22.9745
lfoot -16.6697 8.98867
ltoes 5.68008
477
root 0.428875 16.0683 26.5426 1.82213 1.62955 5.46349
lowerback 13.4996 0.00673849 -9.34631
upperback -5.83771 -1.77963 0.271182
thorax -13.9477 0.0444928 6.04112
lowerneck -9.9805 -4.73998 -3.40803
upperneck 19.6538 -6.35455 1.91618
head 7.88137 -3.10441 0.572853
rclavicle 1.93815e-015 -7.95139e-015
rhumerus -52.513 -1.90836 -85.4406
rradius 24.7844
rwrist 7.61813
rhand -10.3818 22.3666
rfingers 7.12502
rthumb 15.6159 -7.02312
lclavicle 1.93815e-015 -7.95139e-015
lhumerus -33.3186 -6.02585 89.4868
lradius 32.2647
lwrist 5.7223
lhand -7.04895 17.8881
lfingers 7.12502
lthumb 18.8237 46.9973
rfemur -34.1782 4.28182 15.0414
rtibia 46.2969
rfoot -10.4604 -10.4706
rtoes 33.8109
lfemur 0.0409133 -15.7839 -33.4439
ltibia 21.6194
lfoot -16.5879 9.14745
ltoes 5.64037
